<?xml version="1.0" encoding="UTF-8" standalone="no"?>
<!-- Generator: Adobe Illustrator 21.0.0, SVG Export Plug-In . SVG Version: 6.00 Build 0)  -->

<svg
   xmlns:dc="http://purl.org/dc/elements/1.1/"
   xmlns:cc="http://creativecommons.org/ns#"
   xmlns:rdf="http://www.w3.org/1999/02/22-rdf-syntax-ns#"
   xmlns:svg="http://www.w3.org/2000/svg"
   xmlns="http://www.w3.org/2000/svg"
   xmlns:sodipodi="http://sodipodi.sourceforge.net/DTD/sodipodi-0.dtd"
   xmlns:inkscape="http://www.inkscape.org/namespaces/inkscape"
   version="1.1"
   x="0px"
   y="0px"
   viewBox="0 0 468.44965 404.32156"
   xml:space="preserve"
   id="svg419"
   sodipodi:docname="workspace-2.svg"
   width="468.44965"
   height="404.32156"
   inkscape:version="0.92.3 (2405546, 2018-03-11)"><metadata
   id="metadata425"><rdf:RDF><cc:Work
       rdf:about=""><dc:format>image/svg+xml</dc:format><dc:type
         rdf:resource="http://purl.org/dc/dcmitype/StillImage" /><dc:title></dc:title></cc:Work></rdf:RDF></metadata><defs
   id="defs423" /><sodipodi:namedview
   pagecolor="#ffffff"
   bordercolor="#666666"
   borderopacity="1"
   objecttolerance="10"
   gridtolerance="10"
   guidetolerance="10"
   inkscape:pageopacity="0"
   inkscape:pageshadow="2"
   inkscape:window-width="862"
   inkscape:window-height="480"
   id="namedview421"
   showgrid="false"
   fit-margin-top="0"
   fit-margin-left="0"
   fit-margin-right="0"
   fit-margin-bottom="0"
   inkscape:zoom="0.39333333"
   inkscape:cx="212.22848"
   inkscape:cy="211.5002"
   inkscape:window-x="67"
   inkscape:window-y="27"
   inkscape:window-maximized="0"
   inkscape:current-layer="svg419" />
<style
   type="text/css"
   id="style2">
	.st0{fill:#FCFCFC;}
	.st1{fill:none;stroke:#EFEFEF;stroke-width:3;stroke-linecap:round;stroke-linejoin:round;stroke-miterlimit:10;}
	.st2{fill:#F7F7F7;}
	.st3{fill:#EFEFEF;}
	.st4{fill:#FFFFFF;}
	.st5{fill:none;stroke:#E8E8E8;stroke-width:1.5;stroke-linecap:round;stroke-linejoin:round;stroke-miterlimit:10;}
	.st6{fill:none;stroke:#E8E8E8;stroke-width:3;stroke-linecap:round;stroke-linejoin:round;stroke-miterlimit:10;}
	.st7{fill:#775B44;}
	.st8{fill:#DE5B5D;}
	.st9{fill:#DDDDDD;}
	.st10{fill:#444444;}
	.st11{opacity:0.5;fill:#FFFFFF;}
	.st12{opacity:0.25;}
	.st13{opacity:0.25;fill:#FFFFFF;}
	.st14{opacity:0.15;fill:#FFFFFF;}
	.st15{fill:none;stroke:#333333;stroke-width:4;stroke-linecap:round;stroke-linejoin:round;stroke-miterlimit:10;}
	.st16{opacity:0.5;fill:none;stroke:#333333;stroke-width:2;stroke-linecap:round;stroke-linejoin:round;stroke-miterlimit:10;}
	.st17{fill:none;stroke:#333333;stroke-width:2;stroke-linecap:round;stroke-linejoin:round;stroke-miterlimit:10;}
	.st18{fill:#8DBF75;}
	.st19{opacity:0.1;}
</style>
<g
   id="window_1_"
   transform="translate(-187.77152,-107.17863)">
	<g
   id="color_1_">
		<g
   id="XMLID_3_">
			<g
   id="g20">
				<polygon
   class="st0"
   points="314.1,335.2 314.1,324.4 318.4,324.4 421.9,324.4 426.2,324.4 529.8,324.4 534.1,324.4 534.1,335.2 "
   id="polygon4"
   style="fill:#fcfcfc" />
				<path
   class="st0"
   d="M 529.8,108.7 V 324.4 H 426.2 V 108.7 Z m -8.7,207.1 v -96 -102.5 h -86.3 v 102.5 96 z"
   id="path6"
   inkscape:connector-curvature="0"
   style="fill:#fcfcfc" />
				<polygon
   class="st0"
   points="434.9,315.8 434.9,219.8 441.3,219.8 441.3,309.3 474.8,309.3 474.8,219.8 481.2,219.8 481.2,309.3 514.7,309.3 514.7,219.8 521.1,219.8 521.1,315.8 "
   id="polygon8"
   style="fill:#fcfcfc" />
				<path
   class="st0"
   d="m 521.1,117.3 v 102.5 h -6.5 -33.4 -6.5 -33.4 -6.5 V 117.3 Z m -6.4,96 v -89.5 h -33.4 v 89.5 z m -39.9,0 v -89.5 h -33.4 v 89.5 z"
   id="path10"
   inkscape:connector-curvature="0"
   style="fill:#fcfcfc" />
				<polygon
   class="st0"
   points="421.9,324.4 421.9,108.7 426.2,108.7 426.2,324.4 "
   id="polygon12"
   style="fill:#fcfcfc" />
				<path
   class="st0"
   d="M 421.9,108.7 V 324.4 H 318.4 V 108.7 Z m -8.6,207.1 v -96 -102.5 H 327 v 102.5 96 z"
   id="path14"
   inkscape:connector-curvature="0"
   style="fill:#fcfcfc" />
				<polygon
   class="st0"
   points="327,315.8 327,219.8 333.5,219.8 333.5,309.3 366.9,309.3 366.9,219.8 373.4,219.8 373.4,309.3 406.8,309.3 406.8,219.8 413.3,219.8 413.3,315.8 "
   id="polygon16"
   style="fill:#fcfcfc" />
				<path
   class="st0"
   d="m 413.3,117.3 v 102.5 h -6.5 -33.4 -6.5 -33.4 -6.5 V 117.3 Z m -6.5,96 v -89.5 h -33.4 v 89.5 z m -39.9,0 v -89.5 h -33.4 v 89.5 z"
   id="path18"
   inkscape:connector-curvature="0"
   style="fill:#fcfcfc" />
			</g>
			<g
   id="g22">
			</g>
		</g>
	</g>
	<g
   id="lines_1_">
		<rect
   x="314.10001"
   y="324.39999"
   class="st1"
   width="220"
   height="10.8"
   id="rect26"
   style="fill:none;stroke:#efefef;stroke-width:3;stroke-linecap:round;stroke-linejoin:round;stroke-miterlimit:10" />
		<polyline
   class="st1"
   points="529.8,108.7 529.8,324.4 318.4,324.4 318.4,108.7 529.8,108.7   "
   id="polyline28"
   style="fill:none;stroke:#efefef;stroke-width:3;stroke-linecap:round;stroke-linejoin:round;stroke-miterlimit:10" />
		<line
   class="st1"
   x1="427.20001"
   y1="108.7"
   x2="427.20001"
   y2="324.39999"
   id="line30"
   style="fill:none;stroke:#efefef;stroke-width:3;stroke-linecap:round;stroke-linejoin:round;stroke-miterlimit:10" />
		<line
   class="st1"
   x1="420.89999"
   y1="324.39999"
   x2="420.89999"
   y2="108.7"
   id="line32"
   style="fill:none;stroke:#efefef;stroke-width:3;stroke-linecap:round;stroke-linejoin:round;stroke-miterlimit:10" />
		<rect
   x="327"
   y="117.3"
   class="st1"
   width="86.300003"
   height="198.39999"
   id="rect34"
   style="fill:none;stroke:#efefef;stroke-width:3;stroke-linecap:round;stroke-linejoin:round;stroke-miterlimit:10" />
		<line
   class="st1"
   x1="406.79999"
   y1="213.3"
   x2="373.39999"
   y2="213.3"
   id="line36"
   style="fill:none;stroke:#efefef;stroke-width:3;stroke-linecap:round;stroke-linejoin:round;stroke-miterlimit:10" />
		<line
   class="st1"
   x1="366.89999"
   y1="213.3"
   x2="333.5"
   y2="213.3"
   id="line38"
   style="fill:none;stroke:#efefef;stroke-width:3;stroke-linecap:round;stroke-linejoin:round;stroke-miterlimit:10" />
		<line
   class="st1"
   x1="327"
   y1="219.8"
   x2="413.29999"
   y2="219.8"
   id="line40"
   style="fill:none;stroke:#efefef;stroke-width:3;stroke-linecap:round;stroke-linejoin:round;stroke-miterlimit:10" />
		<line
   class="st1"
   x1="366.89999"
   y1="309.29999"
   x2="366.89999"
   y2="219.8"
   id="line42"
   style="fill:none;stroke:#efefef;stroke-width:3;stroke-linecap:round;stroke-linejoin:round;stroke-miterlimit:10" />
		<line
   class="st1"
   x1="366.89999"
   y1="213.3"
   x2="366.89999"
   y2="123.8"
   id="line44"
   style="fill:none;stroke:#efefef;stroke-width:3;stroke-linecap:round;stroke-linejoin:round;stroke-miterlimit:10" />
		<line
   class="st1"
   x1="373.39999"
   y1="309.29999"
   x2="373.39999"
   y2="219.8"
   id="line46"
   style="fill:none;stroke:#efefef;stroke-width:3;stroke-linecap:round;stroke-linejoin:round;stroke-miterlimit:10" />
		<line
   class="st1"
   x1="373.39999"
   y1="213.3"
   x2="373.39999"
   y2="123.8"
   id="line48"
   style="fill:none;stroke:#efefef;stroke-width:3;stroke-linecap:round;stroke-linejoin:round;stroke-miterlimit:10" />
		<polyline
   class="st1"
   points="373.4,123.8 406.8,123.8 406.8,213.3   "
   id="polyline50"
   style="fill:none;stroke:#efefef;stroke-width:3;stroke-linecap:round;stroke-linejoin:round;stroke-miterlimit:10" />
		<polyline
   class="st1"
   points="333.5,213.3 333.5,123.8 366.9,123.8   "
   id="polyline52"
   style="fill:none;stroke:#efefef;stroke-width:3;stroke-linecap:round;stroke-linejoin:round;stroke-miterlimit:10" />
		<polyline
   class="st1"
   points="333.5,219.8 333.5,309.3 366.9,309.3   "
   id="polyline54"
   style="fill:none;stroke:#efefef;stroke-width:3;stroke-linecap:round;stroke-linejoin:round;stroke-miterlimit:10" />
		<polyline
   class="st1"
   points="406.8,219.8 406.8,309.3 373.4,309.3   "
   id="polyline56"
   style="fill:none;stroke:#efefef;stroke-width:3;stroke-linecap:round;stroke-linejoin:round;stroke-miterlimit:10" />
		<rect
   x="434.89999"
   y="117.3"
   class="st1"
   width="86.300003"
   height="198.39999"
   id="rect58"
   style="fill:none;stroke:#efefef;stroke-width:3;stroke-linecap:round;stroke-linejoin:round;stroke-miterlimit:10" />
		<line
   class="st1"
   x1="514.70001"
   y1="213.3"
   x2="481.20001"
   y2="213.3"
   id="line60"
   style="fill:none;stroke:#efefef;stroke-width:3;stroke-linecap:round;stroke-linejoin:round;stroke-miterlimit:10" />
		<line
   class="st1"
   x1="474.79999"
   y1="213.3"
   x2="441.29999"
   y2="213.3"
   id="line62"
   style="fill:none;stroke:#efefef;stroke-width:3;stroke-linecap:round;stroke-linejoin:round;stroke-miterlimit:10" />
		<line
   class="st1"
   x1="434.89999"
   y1="219.8"
   x2="521.09998"
   y2="219.8"
   id="line64"
   style="fill:none;stroke:#efefef;stroke-width:3;stroke-linecap:round;stroke-linejoin:round;stroke-miterlimit:10" />
		<line
   class="st1"
   x1="474.79999"
   y1="309.29999"
   x2="474.79999"
   y2="219.8"
   id="line66"
   style="fill:none;stroke:#efefef;stroke-width:3;stroke-linecap:round;stroke-linejoin:round;stroke-miterlimit:10" />
		<line
   class="st1"
   x1="474.79999"
   y1="213.3"
   x2="474.79999"
   y2="123.8"
   id="line68"
   style="fill:none;stroke:#efefef;stroke-width:3;stroke-linecap:round;stroke-linejoin:round;stroke-miterlimit:10" />
		<line
   class="st1"
   x1="481.20001"
   y1="309.29999"
   x2="481.20001"
   y2="219.8"
   id="line70"
   style="fill:none;stroke:#efefef;stroke-width:3;stroke-linecap:round;stroke-linejoin:round;stroke-miterlimit:10" />
		<line
   class="st1"
   x1="481.20001"
   y1="213.3"
   x2="481.20001"
   y2="123.8"
   id="line72"
   style="fill:none;stroke:#efefef;stroke-width:3;stroke-linecap:round;stroke-linejoin:round;stroke-miterlimit:10" />
		<polyline
   class="st1"
   points="481.2,123.8 514.7,123.8 514.7,213.3   "
   id="polyline74"
   style="fill:none;stroke:#efefef;stroke-width:3;stroke-linecap:round;stroke-linejoin:round;stroke-miterlimit:10" />
		<polyline
   class="st1"
   points="441.3,213.3 441.3,123.8 474.8,123.8   "
   id="polyline76"
   style="fill:none;stroke:#efefef;stroke-width:3;stroke-linecap:round;stroke-linejoin:round;stroke-miterlimit:10" />
		<polyline
   class="st1"
   points="441.3,219.8 441.3,309.3 474.8,309.3   "
   id="polyline78"
   style="fill:none;stroke:#efefef;stroke-width:3;stroke-linecap:round;stroke-linejoin:round;stroke-miterlimit:10" />
		<polyline
   class="st1"
   points="514.7,219.8 514.7,309.3 481.2,309.3   "
   id="polyline80"
   style="fill:none;stroke:#efefef;stroke-width:3;stroke-linecap:round;stroke-linejoin:round;stroke-miterlimit:10" />
	</g>
</g>
<g
   id="bush"
   transform="translate(-187.77152,-107.17863)">
	<g
   id="color_4_">
		<g
   id="XMLID_31_">
			<g
   id="g100">
				<path
   class="st2"
   d="m 644.5,402.9 v 0.1 c -21.1,4.5 -30.8,38 -40.3,52.3 h -4.3 c 2.9,-6 4.6,-13 5.7,-20.7 1.5,-4.1 3.3,-7.7 5.4,-10.9 8.7,-13.5 21.8,-19.5 33.5,-20.8 z"
   id="path84"
   inkscape:connector-curvature="0"
   style="fill:#f7f7f7" />
				<polygon
   class="st2"
   points="627.9,464.3 562.2,464.3 559.2,464.3 559.2,455.4 587.2,455.4 591.9,455.4 595,455.4 599.9,455.4 604.2,455.4 630.9,455.4 630.9,464.3 "
   id="polygon86"
   style="fill:#f7f7f7" />
				<path
   class="st2"
   d="m 630.8,353.9 0.1,0.1 c -9.2,13.2 -21.8,46.7 -19.9,69.8 v 0 c -2.1,3.2 -3.9,6.8 -5.4,10.9 1,-7.4 1.4,-15.4 1.7,-24.1 h 0.2 c 1.5,-24.5 14.9,-46.6 23.3,-56.7 z"
   id="path88"
   inkscape:connector-curvature="0"
   style="fill:#f7f7f7" />
				<polygon
   class="st2"
   points="568.7,503.8 562.2,464.3 627.9,464.3 621.3,503.8 "
   id="polygon90"
   style="fill:#f7f7f7" />
				<polygon
   class="st2"
   points="569.6,509.2 568.7,503.8 621.3,503.8 620.4,509.2 "
   id="polygon92"
   style="fill:#f7f7f7" />
				<path
   class="st2"
   d="m 595,384.6 c 2.6,-31.8 21,-67.5 29.6,-80.3 -17.1,39.1 -16.4,76.2 -17.3,106.3 -0.3,8.6 -0.7,16.7 -1.7,24.1 -1.1,7.7 -2.8,14.7 -5.7,20.7 H 595 c 1.3,-11.4 2,-39.7 0,-70.8 0,0.1 0,0.1 0,0 z"
   id="path94"
   inkscape:connector-curvature="0"
   style="fill:#f7f7f7" />
				<path
   class="st2"
   d="m 595,384.7 c 2,31 1.3,59.3 0,70.7 h -3.1 C 586,442 584,418.2 582.7,392.3 c 0,0 0,-0.1 0,-0.1 -2.1,-41.4 -2.1,-88.4 -12.1,-108.2 15.2,19.9 21.9,62.4 24.4,100.7 0,0 0,0 0,0 z"
   id="path96"
   inkscape:connector-curvature="0"
   style="fill:#f7f7f7" />
				<path
   class="st2"
   d="m 591.9,455.4 h -4.7 c -28,-32.1 -2,-77 -29,-143.9 12.6,17.8 21.8,49.2 24.5,80.6 0,0 0,0.1 0,0.1 1.3,26 3.4,49.8 9.2,63.2 z"
   id="path98"
   inkscape:connector-curvature="0"
   style="fill:#f7f7f7" />
			</g>
			<g
   id="g102">
			</g>
		</g>
	</g>
	<g
   id="shadow_1_">
		<g
   id="g114">
			<rect
   x="562.70001"
   y="464.39999"
   class="st3"
   width="64.5"
   height="4.3000002"
   id="rect106"
   style="fill:#efefef" />
			<path
   class="st3"
   d="m 621.4,372.3 1.3,-5.9 c -6.7,8.2 -14,29.1 -15.3,40 l -0.7,24.9 4.8,-8.3 c -3.8,-15.6 9.9,-50.7 9.9,-50.7 z"
   id="path108"
   inkscape:connector-curvature="0"
   style="fill:#efefef" />
			<path
   class="st3"
   d="m 591.7,455.5 c -1.4,-3.1 -2.9,-9.3 -4.1,-14.7 1.9,7.8 4.1,14.7 4.1,14.7 h 3.2 c 1.3,-4.5 1.3,-32.2 1.3,-32.2 -2.6,18.6 -10.3,7.2 -11.3,0 -0.1,2.2 0.3,5.1 0.8,8.3 -2.9,13 -10,1.5 -12.5,-18.4 -1.4,26.5 13.9,42.2 13.9,42.2 h 4.6 z"
   id="path110"
   inkscape:connector-curvature="0"
   style="fill:#efefef" />
			<path
   class="st3"
   d="m 599.3,455.5 4.8,-0.1 9.9,-18.4 c -2.5,4.9 -7.9,6 -9.9,5 v 0 c 1.4,-6.6 1.4,-11.9 1.4,-11.9 -0.8,8.7 -8.4,12.3 -9.2,7.5 l -0.1,17.9 z"
   id="path112"
   inkscape:connector-curvature="0"
   style="fill:#efefef" />
		</g>
		<g
   id="g128">
			<polygon
   class="st4"
   points="567.5,464 587.5,464.4 587.4,458.5 630.9,458.5 630.9,455.4 559.2,455.4 559.2,458.5 567.5,458.5 "
   id="polygon116"
   style="fill:#ffffff" />
			<polygon
   class="st4"
   points="589.4,464.4 587.5,464.4 569.6,464.4 576.6,509.2 590.3,509.2 "
   id="polygon118"
   style="fill:#ffffff" />
			<path
   class="st4"
   d="m 572.1,393.5 0.9,25.7 c 1.7,-4.4 1.5,-24.7 4.6,-25.7 2.8,-0.9 5.5,10.2 5.5,10.2 L 581,378.2 c -5.6,21.1 -9.6,-7.4 -10.7,-16.8 l 1.6,20 z"
   id="path120"
   inkscape:connector-curvature="0"
   style="fill:#ffffff" />
			<path
   class="st4"
   d="m 591.7,346.9 c -7.8,-48.3 -21.3,-63.3 -21.3,-63.3 11,20.1 12.7,112.3 12.7,112.3 5.4,-30 0.8,-62.9 8.6,-49 z"
   id="path122"
   inkscape:connector-curvature="0"
   style="fill:#ffffff" />
			<path
   class="st4"
   d="m 619.9,313.2 c -5,5.4 -29,55.5 -24.4,80.4 4.6,24.9 -1.9,-26.8 24.4,-80.4 z"
   id="path124"
   inkscape:connector-curvature="0"
   style="fill:#ffffff" />
			<path
   class="st4"
   d="m 605.6,439.2 c 2,-5.6 15.6,-30 21.4,-24 l 12.8,-11.5 c 0.1,0 -30.4,6.7 -34.2,35.5 z"
   id="path126"
   inkscape:connector-curvature="0"
   style="fill:#ffffff" />
		</g>
	</g>
	<g
   id="lines_8_">
		<g
   id="g203">
			<path
   class="st5"
   d="m 558.2,311.5 c 29,52.9 9.7,112.3 31.5,143.9"
   id="path131"
   inkscape:connector-curvature="0"
   style="fill:none;stroke:#e8e8e8;stroke-width:1.5;stroke-linecap:round;stroke-linejoin:round;stroke-miterlimit:10" />
			<path
   class="st5"
   d="m 644.5,403.1 c -30.9,9.3 -27.3,26.1 -43.5,52.3"
   id="path133"
   inkscape:connector-curvature="0"
   style="fill:none;stroke:#e8e8e8;stroke-width:1.5;stroke-linecap:round;stroke-linejoin:round;stroke-miterlimit:10" />
			<path
   class="st5"
   d="M 593.5,455.4 C 590.3,439.1 589.6,318.5 572.7,286.9"
   id="path135"
   inkscape:connector-curvature="0"
   style="fill:none;stroke:#e8e8e8;stroke-width:1.5;stroke-linecap:round;stroke-linejoin:round;stroke-miterlimit:10" />
			<path
   class="st5"
   d="m 597.5,455.4 c 14.7,-46.9 -7,-81.5 25.1,-147.9"
   id="path137"
   inkscape:connector-curvature="0"
   style="fill:none;stroke:#e8e8e8;stroke-width:1.5;stroke-linecap:round;stroke-linejoin:round;stroke-miterlimit:10" />
			<path
   class="st5"
   d="m 592.2,441.7 c -0.4,-6.7 4.1,-20.8 4.1,-20.8"
   id="path139"
   inkscape:connector-curvature="0"
   style="fill:none;stroke:#e8e8e8;stroke-width:1.5;stroke-linecap:round;stroke-linejoin:round;stroke-miterlimit:10" />
			<path
   class="st5"
   d="m 591.2,424.7 c -0.5,-9 -7.5,-15.7 -7.5,-15.7"
   id="path141"
   inkscape:connector-curvature="0"
   style="fill:none;stroke:#e8e8e8;stroke-width:1.5;stroke-linecap:round;stroke-linejoin:round;stroke-miterlimit:10" />
			<path
   class="st5"
   d="m 590.3,409 c -0.3,-5.4 5.1,-16.8 5.1,-16.8"
   id="path143"
   inkscape:connector-curvature="0"
   style="fill:none;stroke:#e8e8e8;stroke-width:1.5;stroke-linecap:round;stroke-linejoin:round;stroke-miterlimit:10" />
			<path
   class="st5"
   d="m 589.4,393.5 c -0.4,-6.6 -7.3,-15.1 -7.3,-15.1"
   id="path145"
   inkscape:connector-curvature="0"
   style="fill:none;stroke:#e8e8e8;stroke-width:1.5;stroke-linecap:round;stroke-linejoin:round;stroke-miterlimit:10" />
			<path
   class="st5"
   d="m 588.2,375.8 c -0.5,-6.9 4.7,-15.2 4.7,-15.2"
   id="path147"
   inkscape:connector-curvature="0"
   style="fill:none;stroke:#e8e8e8;stroke-width:1.5;stroke-linecap:round;stroke-linejoin:round;stroke-miterlimit:10" />
			<path
   class="st5"
   d="m 586.9,360.6 c -0.6,-6.1 -6,-9.6 -6,-9.6"
   id="path149"
   inkscape:connector-curvature="0"
   style="fill:none;stroke:#e8e8e8;stroke-width:1.5;stroke-linecap:round;stroke-linejoin:round;stroke-miterlimit:10" />
			<path
   class="st5"
   d="m 592.6,447.5 c -0.4,-4.7 -6.1,-12.8 -6.1,-12.8"
   id="path151"
   inkscape:connector-curvature="0"
   style="fill:none;stroke:#e8e8e8;stroke-width:1.5;stroke-linecap:round;stroke-linejoin:round;stroke-miterlimit:10" />
			<path
   class="st5"
   d="m 585.7,348.3 c -0.8,-5.9 2.7,-16.5 2.7,-16.5"
   id="path153"
   inkscape:connector-curvature="0"
   style="fill:none;stroke:#e8e8e8;stroke-width:1.5;stroke-linecap:round;stroke-linejoin:round;stroke-miterlimit:10" />
			<path
   class="st5"
   d="m 583.7,330.6 c -0.8,-4.3 -4.9,-9.3 -4.9,-9.3"
   id="path155"
   inkscape:connector-curvature="0"
   style="fill:none;stroke:#e8e8e8;stroke-width:1.5;stroke-linecap:round;stroke-linejoin:round;stroke-miterlimit:10" />
			<path
   class="st5"
   d="m 582.3,439.2 c -1.6,-6.6 2.6,-17.1 2.6,-17.1"
   id="path157"
   inkscape:connector-curvature="0"
   style="fill:none;stroke:#e8e8e8;stroke-width:1.5;stroke-linecap:round;stroke-linejoin:round;stroke-miterlimit:10" />
			<path
   class="st5"
   d="m 580,429.2 c -0.9,-6.3 -6.9,-11.8 -6.9,-11.8"
   id="path159"
   inkscape:connector-curvature="0"
   style="fill:none;stroke:#e8e8e8;stroke-width:1.5;stroke-linecap:round;stroke-linejoin:round;stroke-miterlimit:10" />
			<path
   class="st5"
   d="m 584.9,446.5 c -1.6,-4.3 -6.6,-5.5 -6.6,-5.5"
   id="path161"
   inkscape:connector-curvature="0"
   style="fill:none;stroke:#e8e8e8;stroke-width:1.5;stroke-linecap:round;stroke-linejoin:round;stroke-miterlimit:10" />
			<path
   class="st5"
   d="m 577.9,411.4 c -0.3,-3.9 4.2,-14.2 5,-15.5"
   id="path163"
   inkscape:connector-curvature="0"
   style="fill:none;stroke:#e8e8e8;stroke-width:1.5;stroke-linecap:round;stroke-linejoin:round;stroke-miterlimit:10" />
			<path
   class="st5"
   d="m 577,396.7 c -0.3,-5.4 -4.8,-9.4 -4.8,-9.4"
   id="path165"
   inkscape:connector-curvature="0"
   style="fill:none;stroke:#e8e8e8;stroke-width:1.5;stroke-linecap:round;stroke-linejoin:round;stroke-miterlimit:10" />
			<path
   class="st5"
   d="m 575.9,379.9 c -0.3,-4.1 3.5,-11.7 3.5,-11.7"
   id="path167"
   inkscape:connector-curvature="0"
   style="fill:none;stroke:#e8e8e8;stroke-width:1.5;stroke-linecap:round;stroke-linejoin:round;stroke-miterlimit:10" />
			<path
   class="st5"
   d="m 574.5,366.4 c -0.5,-4.1 -4.2,-7 -4.2,-7"
   id="path169"
   inkscape:connector-curvature="0"
   style="fill:none;stroke:#e8e8e8;stroke-width:1.5;stroke-linecap:round;stroke-linejoin:round;stroke-miterlimit:10" />
			<path
   class="st5"
   d="m 573.1,356.5 c -0.7,-4.1 1.4,-8.2 1.4,-8.2"
   id="path171"
   inkscape:connector-curvature="0"
   style="fill:none;stroke:#e8e8e8;stroke-width:1.5;stroke-linecap:round;stroke-linejoin:round;stroke-miterlimit:10" />
			<path
   class="st5"
   d="m 599.7,447.5 c 1.1,-5.2 -3.5,-14.8 -3.5,-14.8"
   id="path173"
   inkscape:connector-curvature="0"
   style="fill:none;stroke:#e8e8e8;stroke-width:1.5;stroke-linecap:round;stroke-linejoin:round;stroke-miterlimit:10" />
			<path
   class="st5"
   d="m 601.8,436 c 0.5,-4.1 4.7,-10.2 4.7,-10.2"
   id="path175"
   inkscape:connector-curvature="0"
   style="fill:none;stroke:#e8e8e8;stroke-width:1.5;stroke-linecap:round;stroke-linejoin:round;stroke-miterlimit:10" />
			<path
   class="st5"
   d="m 603.1,423.4 c 0.2,-4.4 -5,-13.2 -6.9,-14.3"
   id="path177"
   inkscape:connector-curvature="0"
   style="fill:none;stroke:#e8e8e8;stroke-width:1.5;stroke-linecap:round;stroke-linejoin:round;stroke-miterlimit:10" />
			<path
   class="st5"
   d="m 603.4,411.4 c 0,-3.9 4,-10.8 4,-10.8"
   id="path179"
   inkscape:connector-curvature="0"
   style="fill:none;stroke:#e8e8e8;stroke-width:1.5;stroke-linecap:round;stroke-linejoin:round;stroke-miterlimit:10" />
			<path
   class="st5"
   d="m 603.4,399.9 c 0.1,-5 -6.4,-15.1 -8.3,-16.4"
   id="path181"
   inkscape:connector-curvature="0"
   style="fill:none;stroke:#e8e8e8;stroke-width:1.5;stroke-linecap:round;stroke-linejoin:round;stroke-miterlimit:10" />
			<path
   class="st5"
   d="m 603.4,388.1 c 0.3,-5 5,-11.4 5,-11.4"
   id="path183"
   inkscape:connector-curvature="0"
   style="fill:none;stroke:#e8e8e8;stroke-width:1.5;stroke-linecap:round;stroke-linejoin:round;stroke-miterlimit:10" />
			<path
   class="st5"
   d="m 604,376.7 c 0.4,-5 -2.6,-13.4 -4.7,-15.3"
   id="path185"
   inkscape:connector-curvature="0"
   style="fill:none;stroke:#e8e8e8;stroke-width:1.5;stroke-linecap:round;stroke-linejoin:round;stroke-miterlimit:10" />
			<path
   class="st5"
   d="m 605.2,364.6 c 0.4,-3 4.2,-8.7 5.4,-8.8"
   id="path187"
   inkscape:connector-curvature="0"
   style="fill:none;stroke:#e8e8e8;stroke-width:1.5;stroke-linecap:round;stroke-linejoin:round;stroke-miterlimit:10" />
			<path
   class="st5"
   d="m 607.1,352.4 c 0.6,-2.7 0.2,-10.3 -1.2,-11"
   id="path189"
   inkscape:connector-curvature="0"
   style="fill:none;stroke:#e8e8e8;stroke-width:1.5;stroke-linecap:round;stroke-linejoin:round;stroke-miterlimit:10" />
			<path
   class="st5"
   d="m 610.5,338.6 c 0.5,-1.8 3.8,-3.4 3.8,-3.4"
   id="path191"
   inkscape:connector-curvature="0"
   style="fill:none;stroke:#e8e8e8;stroke-width:1.5;stroke-linecap:round;stroke-linejoin:round;stroke-miterlimit:10" />
			<path
   class="st5"
   d="m 604.9,448.5 c 0.9,-1.8 5.6,-4.7 5.6,-4.7"
   id="path193"
   inkscape:connector-curvature="0"
   style="fill:none;stroke:#e8e8e8;stroke-width:1.5;stroke-linecap:round;stroke-linejoin:round;stroke-miterlimit:10" />
			<path
   class="st5"
   d="m 608.6,441.1 c 1,-2.3 1.5,-11.5 0,-13.3"
   id="path195"
   inkscape:connector-curvature="0"
   style="fill:none;stroke:#e8e8e8;stroke-width:1.5;stroke-linecap:round;stroke-linejoin:round;stroke-miterlimit:10" />
			<path
   class="st5"
   d="m 612.4,432.7 c 1.1,-2.5 5.9,-5.2 6.5,-5.3"
   id="path197"
   inkscape:connector-curvature="0"
   style="fill:none;stroke:#e8e8e8;stroke-width:1.5;stroke-linecap:round;stroke-linejoin:round;stroke-miterlimit:10" />
			<path
   class="st5"
   d="m 617,423.4 c 0.8,-1.4 1.1,-8.2 1.1,-8.2"
   id="path199"
   inkscape:connector-curvature="0"
   style="fill:none;stroke:#e8e8e8;stroke-width:1.5;stroke-linecap:round;stroke-linejoin:round;stroke-miterlimit:10" />
			<path
   class="st5"
   d="m 621.4,416.9 c 1.2,-1.3 6.5,-2.7 6.5,-2.7"
   id="path201"
   inkscape:connector-curvature="0"
   style="fill:none;stroke:#e8e8e8;stroke-width:1.5;stroke-linecap:round;stroke-linejoin:round;stroke-miterlimit:10" />
		</g>
		<path
   class="st6"
   d="m 595,455.4 c 2.9,-26.1 3.1,-141.2 -26.7,-174.3"
   id="path205"
   inkscape:connector-curvature="0"
   style="fill:none;stroke:#e8e8e8;stroke-width:3;stroke-linecap:round;stroke-linejoin:round;stroke-miterlimit:10" />
		<path
   class="st6"
   d="m 570.6,283.9 c 16.3,32.2 6.2,136.6 21.4,171.5"
   id="path207"
   inkscape:connector-curvature="0"
   style="fill:none;stroke:#e8e8e8;stroke-width:3;stroke-linecap:round;stroke-linejoin:round;stroke-miterlimit:10" />
		<path
   class="st6"
   d="m 599.9,455.4 c 15.3,-31.7 -2.5,-88.9 24.7,-151.1"
   id="path209"
   inkscape:connector-curvature="0"
   style="fill:none;stroke:#e8e8e8;stroke-width:3;stroke-linecap:round;stroke-linejoin:round;stroke-miterlimit:10" />
		<path
   class="st6"
   d="m 558.2,311.5 c 27,66.9 1,111.8 29,143.9"
   id="path211"
   inkscape:connector-curvature="0"
   style="fill:none;stroke:#e8e8e8;stroke-width:3;stroke-linecap:round;stroke-linejoin:round;stroke-miterlimit:10" />
		<path
   class="st6"
   d="m 604.2,455.4 c 9.5,-14.3 19.3,-47.8 40.3,-52.3"
   id="path213"
   inkscape:connector-curvature="0"
   style="fill:none;stroke:#e8e8e8;stroke-width:3;stroke-linecap:round;stroke-linejoin:round;stroke-miterlimit:10" />
		<path
   class="st6"
   d="m 654.7,403.1 c -15.9,-2.2 -39.2,4.9 -49.1,31.6"
   id="path215"
   inkscape:connector-curvature="0"
   style="fill:none;stroke:#e8e8e8;stroke-width:3;stroke-linecap:round;stroke-linejoin:round;stroke-miterlimit:10" />
		<path
   class="st6"
   d="m 630.9,354 c -9.2,13.2 -21.8,46.7 -19.9,69.8"
   id="path217"
   inkscape:connector-curvature="0"
   style="fill:none;stroke:#e8e8e8;stroke-width:3;stroke-linecap:round;stroke-linejoin:round;stroke-miterlimit:10" />
		<line
   class="st6"
   x1="560.70001"
   y1="509.20001"
   x2="624.90002"
   y2="509.20001"
   id="line219"
   style="fill:none;stroke:#e8e8e8;stroke-width:3;stroke-linecap:round;stroke-linejoin:round;stroke-miterlimit:10" />
		<rect
   x="559.20001"
   y="455.39999"
   class="st6"
   width="71.699997"
   height="9"
   id="rect221"
   style="fill:none;stroke:#e8e8e8;stroke-width:3;stroke-linecap:round;stroke-linejoin:round;stroke-miterlimit:10" />
		<line
   class="st6"
   x1="627.90002"
   y1="464.39999"
   x2="620.40002"
   y2="509.20001"
   id="line223"
   style="fill:none;stroke:#e8e8e8;stroke-width:3;stroke-linecap:round;stroke-linejoin:round;stroke-miterlimit:10" />
		<line
   class="st6"
   x1="562.20001"
   y1="464.39999"
   x2="569.59998"
   y2="509.20001"
   id="line225"
   style="fill:none;stroke:#e8e8e8;stroke-width:3;stroke-linecap:round;stroke-linejoin:round;stroke-miterlimit:10" />
		<path
   class="st6"
   d="m 595,384.7 c 3,-36.9 27.2,-79.1 32.9,-84.7"
   id="path227"
   inkscape:connector-curvature="0"
   style="fill:none;stroke:#e8e8e8;stroke-width:3;stroke-linecap:round;stroke-linejoin:round;stroke-miterlimit:10" />
		<path
   class="st6"
   d="m 582.7,392.3 c -3,-34 -13.4,-68 -27.6,-84.8"
   id="path229"
   inkscape:connector-curvature="0"
   style="fill:none;stroke:#e8e8e8;stroke-width:3;stroke-linecap:round;stroke-linejoin:round;stroke-miterlimit:10" />
		<path
   class="st6"
   d="m 634.5,349.9 c -7.3,6.9 -25.2,32.1 -27,60.7"
   id="path231"
   inkscape:connector-curvature="0"
   style="fill:none;stroke:#e8e8e8;stroke-width:3;stroke-linecap:round;stroke-linejoin:round;stroke-miterlimit:10" />
		<line
   class="st6"
   x1="635.79999"
   y1="509.20001"
   x2="631.40002"
   y2="509.20001"
   id="line233"
   style="fill:none;stroke:#e8e8e8;stroke-width:3;stroke-linecap:round;stroke-linejoin:round;stroke-miterlimit:10" />
		<line
   class="st5"
   x1="568.70001"
   y1="503.79999"
   x2="621.29999"
   y2="503.79999"
   id="line235"
   style="fill:none;stroke:#e8e8e8;stroke-width:1.5;stroke-linecap:round;stroke-linejoin:round;stroke-miterlimit:10" />
	</g>
</g>
<g
   id="table_1_"
   transform="translate(-187.77152,-107.17863)">
	<g
   id="color">
		<g
   id="g268">
			<g
   id="XMLID_4_">
				<g
   id="g263">
					<polygon
   class="st7"
   points="515.6,406 500.4,406 346.4,406 331.2,406 263.4,406 263.4,396 583.4,396 583.4,406 "
   id="polygon239"
   style="fill:#775b44" />
					<path
   class="st8"
   d="m 544.7,377 v 2 c 0,0.1 0,0.3 0,0.4 -0.1,4.4 -2.1,8.3 -5.2,10.9 -0.7,0.6 -1.5,1.2 -2.3,1.6 v 2 h -15 v -2 c -4.5,-2.6 -7.5,-7.4 -7.5,-13 v -2 h 30 z"
   id="path241"
   inkscape:connector-curvature="0"
   style="fill:#de5b5d" />
					<path
   class="st7"
   d="M 521.9,509.4 H 510 c 0,0 -27.1,-47.9 -27.6,-61.7 v -0.6 c 0.2,-8 9.1,-25.4 17.9,-41.1 h 15.2 c -7.7,16.1 -15.8,34.7 -15.8,41.4 0.1,12.2 17.2,52.7 22.2,62 z"
   id="path243"
   inkscape:connector-curvature="0"
   style="fill:#775b44" />
					<path
   class="st9"
   d="m 503.9,387.9 v 3.4 c 0,0 -1.5,4.6 -14.9,4.6 H 358.8 c -13.4,0 -14.9,-4.6 -14.9,-4.6 v -3.4 h 12.4 136 z"
   id="path245"
   inkscape:connector-curvature="0"
   style="fill:#dddddd" />
					<path
   class="st9"
   d="M 492.3,302.2 V 388 h -136 v -85.8 c 0,-2.4 1.9,-4.2 4.2,-4.2 H 488 c 2.4,-0.1 4.3,1.8 4.3,4.2 z m -8,77.7 v -74 h -120 v 74 z"
   id="path247"
   inkscape:connector-curvature="0"
   style="fill:#dddddd" />
					<rect
   x="364.29999"
   y="305.89999"
   class="st10"
   width="120"
   height="74"
   id="rect249"
   style="fill:#444444" />
					<path
   class="st7"
   d="m 482.5,447.7 v 3.6 H 364.3 v -4 -6 h 118.2 v 5.8 c 0,0.1 0,0.2 0,0.3 0,0.1 0,0.2 0,0.3 z"
   id="path251"
   inkscape:connector-curvature="0"
   style="fill:#775b44" />
					<polygon
   class="st9"
   points="394,441.2 394,436.2 452,436.2 458,436.2 458,441.2 "
   id="polygon253"
   style="fill:#dddddd" />
					<path
   class="st9"
   d="m 455.9,426.3 -0.2,4.7 -3.7,-0.2 -60.2,-3.1 0.2,-4 c 0,0 0.1,0 0.1,0 2.1,0.1 27.8,1.6 46.1,2.3 0.1,0 0.2,0 0.3,0 8.5,0.4 15.4,0.5 17.4,0.3 z"
   id="path255"
   inkscape:connector-curvature="0"
   style="fill:#dddddd" />
					<path
   class="st9"
   d="m 452,430.9 v 0.3 c 0,0 -8.7,0 -19.6,0 v 0 c 0,0 -26.7,-0.9 -36.9,-1.5 -8.8,-0.5 -7.7,-9.8 -3.3,-9.3 2.3,0.2 2.9,3.4 0,3.4 0,0 -0.1,0 -0.1,0 l -0.2,4 z"
   id="path257"
   inkscape:connector-curvature="0"
   style="fill:#dddddd" />
					<path
   class="st9"
   d="m 452,431.2 v 5 h -58 -6 v -5.4 c 1.5,0.4 26.1,0.4 44.4,0.4 10.9,0 19.6,0 19.6,0 z"
   id="path259"
   inkscape:connector-curvature="0"
   style="fill:#dddddd" />
					<path
   class="st7"
   d="m 346.4,406 c 8.9,15.9 17.9,33.4 17.9,41.4 0,13.4 -27.6,62 -27.6,62 H 325 c 4.9,-9.4 22,-49.8 22,-62 0,-6.7 -8.1,-25.3 -15.8,-41.4 z"
   id="path261"
   inkscape:connector-curvature="0"
   style="fill:#775b44" />
				</g>
				<g
   id="g265">
				</g>
			</g>
		</g>
	</g>
	<g
   id="shadows_1_">
		<rect
   x="514.70001"
   y="377"
   class="st11"
   width="29.799999"
   height="4.4000001"
   id="rect271"
   style="opacity:0.5;fill:#ffffff" />
		<rect
   x="356.29999"
   y="297"
   class="st4"
   width="136"
   height="5.1999998"
   id="rect273"
   style="fill:#ffffff" />
		<rect
   x="488.20001"
   y="299.60001"
   class="st4"
   width="4.0999999"
   height="87.400002"
   id="rect275"
   style="fill:#ffffff" />
		<polygon
   class="st12"
   points="483.8,305.9 481,305.9 481,305.9 365.5,305.9 365.5,309.3 481,309.3 481,379.2 483.8,379.2 483.8,309.3 484.3,309.3 484.3,305.9 483.8,305.9 "
   id="polygon277"
   style="opacity:0.25" />
		<rect
   x="343.39999"
   y="388.5"
   class="st4"
   width="160"
   height="3.4000001"
   id="rect279"
   style="fill:#ffffff" />
		<rect
   x="332.5"
   y="407.20001"
   class="st12"
   width="16"
   height="6"
   id="rect281"
   style="opacity:0.25" />
		<rect
   x="498"
   y="406.89999"
   class="st12"
   width="16"
   height="6"
   id="rect283"
   style="opacity:0.25" />
		<rect
   x="263.39999"
   y="396.5"
   class="st13"
   width="321.20001"
   height="3.9000001"
   id="rect285"
   style="opacity:0.25;fill:#ffffff" />
		<rect
   x="388"
   y="430.79999"
   class="st12"
   width="64"
   height="5.4000001"
   id="rect287"
   style="opacity:0.25" />
		<rect
   x="364.29999"
   y="440.5"
   class="st13"
   width="118.2"
   height="5.1999998"
   id="rect289"
   style="opacity:0.25;fill:#ffffff" />
		<path
   class="st12"
   d="m 330.8,493.8 c 1.5,8.2 13.7,3.2 21.1,-13.1 -8.6,19.1 -15.1,28.7 -15.1,28.7 H 325 Z"
   id="path291"
   inkscape:connector-curvature="0"
   style="opacity:0.25" />
		<path
   class="st12"
   d="m 516.1,493.8 c -1.5,8.2 -13.7,3.2 -21.1,-13.1 8.6,19.1 15.1,28.7 15.1,28.7 h 11.8 z"
   id="path293"
   inkscape:connector-curvature="0"
   style="opacity:0.25" />
		<polygon
   class="st14"
   points="363.8,363 417.5,309.3 406.5,309.3 363.8,352 "
   id="polygon295"
   style="opacity:0.15;fill:#ffffff" />
		<polygon
   class="st14"
   points="471.3,309.1 399.3,381.1 364.3,381.1 364.3,370.7 425.9,309.1 "
   id="polygon297"
   style="opacity:0.15;fill:#ffffff" />
	</g>
	<g
   id="lines">
		<g
   id="g306">
			<path
   class="st15"
   d="m 356.3,387.9 v -85.8 c 0,-2.3 1.9,-4.2 4.2,-4.2 H 488 c 2.3,0 4.2,1.9 4.2,4.2 v 85.8"
   id="path300"
   inkscape:connector-curvature="0"
   style="fill:none;stroke:#333333;stroke-width:4;stroke-linecap:round;stroke-linejoin:round;stroke-miterlimit:10" />
			<rect
   x="364.29999"
   y="305.89999"
   class="st15"
   width="120"
   height="74"
   id="rect302"
   style="fill:none;stroke:#333333;stroke-width:4;stroke-linecap:round;stroke-linejoin:round;stroke-miterlimit:10" />
			<path
   class="st15"
   d="m 358.8,395.9 c -13.4,0 -14.9,-4.6 -14.9,-4.6 v -3.4 h 160 v 3.4 c 0,0 -1.5,4.6 -14.9,4.6 H 358.8"
   id="path304"
   inkscape:connector-curvature="0"
   style="fill:none;stroke:#333333;stroke-width:4;stroke-linecap:round;stroke-linejoin:round;stroke-miterlimit:10" />
		</g>
		<g
   id="g322">
			<rect
   x="263.39999"
   y="396"
   class="st15"
   width="320"
   height="10"
   id="rect308"
   style="fill:none;stroke:#333333;stroke-width:4;stroke-linecap:round;stroke-linejoin:round;stroke-miterlimit:10" />
			<path
   class="st15"
   d="m 515.6,406 c -7.7,16.1 -15.8,34.7 -15.8,41.4 0,12.2 17.1,52.7 22.1,62"
   id="path310"
   inkscape:connector-curvature="0"
   style="fill:none;stroke:#333333;stroke-width:4;stroke-linecap:round;stroke-linejoin:round;stroke-miterlimit:10" />
			<path
   class="st15"
   d="m 500.4,406 c -8.9,15.9 -17.9,33.4 -17.9,41.4 0,13.4 27.6,62 27.6,62"
   id="path312"
   inkscape:connector-curvature="0"
   style="fill:none;stroke:#333333;stroke-width:4;stroke-linecap:round;stroke-linejoin:round;stroke-miterlimit:10" />
			<rect
   x="364.29999"
   y="441.39999"
   class="st15"
   width="118.2"
   height="10"
   id="rect314"
   style="fill:none;stroke:#333333;stroke-width:4;stroke-linecap:round;stroke-linejoin:round;stroke-miterlimit:10" />
			<path
   class="st15"
   d="m 331.2,406 c 7.7,16.1 15.8,34.7 15.8,41.4 0,12.2 -17.1,52.7 -22,62"
   id="path316"
   inkscape:connector-curvature="0"
   style="fill:none;stroke:#333333;stroke-width:4;stroke-linecap:round;stroke-linejoin:round;stroke-miterlimit:10" />
			<path
   class="st15"
   d="m 346.4,406 c 8.9,15.9 17.9,33.4 17.9,41.4 0,13.4 -27.6,62 -27.6,62"
   id="path318"
   inkscape:connector-curvature="0"
   style="fill:none;stroke:#333333;stroke-width:4;stroke-linecap:round;stroke-linejoin:round;stroke-miterlimit:10" />
			<line
   class="st15"
   x1="263.89999"
   y1="509.39999"
   x2="602.90002"
   y2="509.39999"
   id="line320"
   style="fill:none;stroke:#333333;stroke-width:4;stroke-linecap:round;stroke-linejoin:round;stroke-miterlimit:10" />
		</g>
		<g
   id="g336">
			<path
   class="st16"
   d="m 538.2,352.4 c 0,0.2 0,0.4 0,0.6 0,4 -2.8,7.4 -6.5,8.4"
   id="path324"
   inkscape:connector-curvature="0"
   style="opacity:0.5;fill:none;stroke:#333333;stroke-width:2;stroke-linecap:round;stroke-linejoin:round;stroke-miterlimit:10" />
			<path
   class="st16"
   d="m 533.3,345.1 c -1.1,-0.6 -2.4,-0.9 -3.8,-0.9"
   id="path326"
   inkscape:connector-curvature="0"
   style="opacity:0.5;fill:none;stroke:#333333;stroke-width:2;stroke-linecap:round;stroke-linejoin:round;stroke-miterlimit:10" />
			<path
   class="st16"
   d="m 536.7,348.1 c 0,0 -0.1,-0.1 -0.1,-0.1"
   id="path328"
   inkscape:connector-curvature="0"
   style="opacity:0.5;fill:none;stroke:#333333;stroke-width:2;stroke-linecap:round;stroke-linejoin:round;stroke-miterlimit:10" />
			<path
   class="st16"
   d="m 525,365.9 c -0.5,0.7 -0.8,1.5 -0.8,2.4 0,1.6 0.9,3 2.3,3.6"
   id="path330"
   inkscape:connector-curvature="0"
   style="opacity:0.5;fill:none;stroke:#333333;stroke-width:2;stroke-linecap:round;stroke-linejoin:round;stroke-miterlimit:10" />
			<path
   class="st15"
   d="m 544.7,379 c 0,5.6 -3,10.4 -7.5,13 v 2 h -15 v -2 c -4.5,-2.6 -7.5,-7.4 -7.5,-13 v 0 -2 h 30 z"
   id="path332"
   inkscape:connector-curvature="0"
   style="fill:none;stroke:#333333;stroke-width:4;stroke-linecap:round;stroke-linejoin:round;stroke-miterlimit:10" />
			<path
   class="st15"
   d="m 539.5,390.3 c 5.2,0 10,-3 10,-6.8 0,-2.3 -1.8,-4.1 -4.1,-4.1 -0.2,0 -0.5,0 -0.7,0.1"
   id="path334"
   inkscape:connector-curvature="0"
   style="fill:none;stroke:#333333;stroke-width:4;stroke-linecap:round;stroke-linejoin:round;stroke-miterlimit:10" />
		</g>
		<g
   id="g348">
			<rect
   x="394"
   y="436.20001"
   class="st17"
   width="64"
   height="5"
   id="rect338"
   style="fill:none;stroke:#333333;stroke-width:2;stroke-linecap:round;stroke-linejoin:round;stroke-miterlimit:10" />
			<path
   class="st17"
   d="m 452,431.2 c 0,0 -61.5,0.2 -64,-0.4 v 5.4 h 64 z"
   id="path340"
   inkscape:connector-curvature="0"
   style="fill:none;stroke:#333333;stroke-width:2;stroke-linecap:round;stroke-linejoin:round;stroke-miterlimit:10" />
			<path
   class="st17"
   d="m 455.9,426.3 c -6.7,0.8 -63.9,-2.5 -63.9,-2.5 l -0.2,4 63.9,3.3 z"
   id="path342"
   inkscape:connector-curvature="0"
   style="fill:none;stroke:#333333;stroke-width:2;stroke-linecap:round;stroke-linejoin:round;stroke-miterlimit:10" />
			<path
   class="st17"
   d="m 392,423.8 c 3.1,0.2 2.5,-3.1 0.2,-3.4 -4.4,-0.4 -5.5,8.9 3.3,9.3 10.3,0.5 36.9,1.5 36.9,1.5"
   id="path344"
   inkscape:connector-curvature="0"
   style="fill:none;stroke:#333333;stroke-width:2;stroke-linecap:round;stroke-linejoin:round;stroke-miterlimit:10" />
			<path
   class="st17"
   d="m 454.7,424.4 c -2.2,0.9 -10.1,2 -16.4,1.7"
   id="path346"
   inkscape:connector-curvature="0"
   style="fill:none;stroke:#333333;stroke-width:2;stroke-linecap:round;stroke-linejoin:round;stroke-miterlimit:10" />
		</g>
		<line
   class="st17"
   x1="577.20001"
   y1="401.70001"
   x2="583.40002"
   y2="401.70001"
   id="line350"
   style="fill:none;stroke:#333333;stroke-width:2;stroke-linecap:round;stroke-linejoin:round;stroke-miterlimit:10" />
	</g>
</g>
<g
   id="bean_bag"
   transform="translate(-187.77152,-107.17863)">
	<g
   id="beanbag_color">
		<g
   id="g363">
			<g
   id="XMLID_1_">
				<g
   id="g358">
					<path
   class="st18"
   d="m 341.8,477.2 c 0,-1.4 -0.2,-2.8 -0.4,-4.2 -0.3,-2.2 -0.7,-4.4 -1.3,-6.6 -6.3,-23.3 -28.8,-44.7 -53.8,-57.1 -8.9,-4.4 -16.1,-9.5 -22.3,-14.9 -2.6,-2.3 -4.9,-4.6 -7.1,-6.9 -9.2,-9.8 -15.6,-20.1 -21.9,-29.1 -1.2,-1.8 -2.4,-3.5 -3.7,-5.2 -4.9,-6.8 -10.1,-12.5 -16.5,-16.2 v 0 c 6,-2.6 13.5,-4.4 21,-3.1 14.5,2.5 38,33.5 61,58 23,24.5 82.5,39.5 79,73.9 -2.6,19.9 -12,34.2 -25.1,43.9 h -20.3 c 8.5,-10.7 11.9,-21.6 11.4,-32.5 z"
   id="path354"
   inkscape:connector-curvature="0"
   style="fill:#8dbf75" />
					<path
   class="st18"
   d="m 341.8,477.2 c 0.5,10.8 -2.9,21.8 -11.4,32.3 H 320.2 237.4 231 220.8 c -35,-25.2 -22,-115.3 -20,-128 0.1,-0.9 0.2,-1.8 0.2,-2.7 0,0 0,0 0,0 0.1,-2 -0.1,-4 -0.3,-6 -1.3,-10.4 -5.5,-21.1 2.1,-28.4 1.9,-1.9 6.4,-5 12,-7.5 v 0 c 6.5,3.7 11.6,9.4 16.5,16.2 1.2,1.7 2.5,3.4 3.7,5.2 6.2,9.1 12.7,19.4 21.9,29.1 2.2,2.4 4.6,4.7 7.1,6.9 6.2,5.4 13.5,10.5 22.3,14.9 24.9,12.4 47.5,33.8 53.8,57.1 0.6,2.2 1,4.4 1.3,6.6 0.3,1.5 0.4,2.9 0.4,4.3 z"
   id="path356"
   inkscape:connector-curvature="0"
   style="fill:#8dbf75" />
				</g>
				<g
   id="g360">
				</g>
			</g>
		</g>
	</g>
	<g
   id="shadows">
		<path
   class="st19"
   d="m 198.4,356.9 c 9.1,20.1 19.9,36 40.3,29.8 -77,114.7 113.2,139 136.6,75.4 5.3,23.9 -23.2,47.5 -23.2,47.5 H 218.4 c 0,0 -32.3,-27.4 -20.3,-113.5 3.9,-24.6 0.3,-39.2 0.3,-39.2 z"
   id="path366"
   inkscape:connector-curvature="0"
   style="opacity:0.1" />
		<path
   class="st19"
   d="m 201,376.5 c 5,8 17.6,18 37.6,10.1 -9.5,15.3 -30.6,15.4 -40.6,9.4 1.7,-6.8 3,-19.5 3,-19.5 z"
   id="path368"
   inkscape:connector-curvature="0"
   style="opacity:0.1" />
		<path
   class="st13"
   d="m 198,353.1 c 4.7,-8.7 30,-20.4 47.5,-8.1 14,10 48.7,69.3 104.4,82.4 -38.1,-19.3 -75.3,-58.1 -83.3,-69.1 -16.4,-16.2 -31.3,-34.4 -54.2,-20.3 -9.6,6.4 -13.3,9.5 -14.4,15.1 z"
   id="path370"
   inkscape:connector-curvature="0"
   style="opacity:0.25;fill:#ffffff" />
		<path
   class="st13"
   d="m 229.5,352.5 c 7.8,16.1 22.2,35.7 33.1,46 10.9,10.3 56.8,25.9 75.1,63.5 -12.7,-32.4 -41.2,-45.2 -46.6,-48.9 -5.4,-3.7 -26.4,-12.5 -38.6,-29.5 -12.2,-17 -23,-31.1 -23,-31.1 z"
   id="path372"
   inkscape:connector-curvature="0"
   style="opacity:0.25;fill:#ffffff" />
		<path
   class="st19"
   d="m 196.8,436.2 c 3.2,33.6 11.3,49.8 15.7,31.4 1.8,11.6 12,21.5 14.5,13.4 8.1,19.8 89,27.7 100.8,15.3 0.8,2.5 6.3,5.3 11.8,-3.4 -0.4,8.4 21.8,8.3 29.2,-4.5 -10.2,16.9 -16.9,21.1 -16.9,21.1 H 220.8 c 0,0 -23.5,-11.5 -24,-73.3 z"
   id="path374"
   inkscape:connector-curvature="0"
   style="opacity:0.1" />
		
			<ellipse
   transform="matrix(0.5362,-0.8441,0.8441,0.5362,-204.5186,493.7043)"
   class="st13"
   cx="347"
   cy="433"
   rx="2.5999999"
   ry="6.4000001"
   id="ellipse376"
   style="opacity:0.25;fill:#ffffff" />
		
			<ellipse
   transform="matrix(0.5362,-0.8441,0.8441,0.5362,-205.2538,481.2794)"
   class="st13"
   cx="335.29999"
   cy="427.39999"
   rx="1.7"
   ry="4"
   id="ellipse378"
   style="opacity:0.25;fill:#ffffff" />
	</g>
	<g
   id="beanbag">
		<g
   id="g413">
			<path
   class="st15"
   d="m 220.8,509.5 h 129.9 c 13.1,-9.7 22.5,-24 25.1,-43.9 3.5,-34.4 -56,-49.5 -79,-73.9 -23,-24.4 -46.5,-55.4 -61,-57.9 -14.5,-2.5 -29,6.7 -33,10.6 -9.7,9.5 0,24.4 -2,37.2 -2,12.7 -15,102.7 20,127.9 z"
   id="path381"
   inkscape:connector-curvature="0"
   style="fill:none;stroke:#333333;stroke-width:4;stroke-linecap:round;stroke-linejoin:round;stroke-miterlimit:10" />
			<path
   class="st17"
   d="m 214.8,336.9 c 22.9,13.1 28.5,51.1 71.5,72.4 40.1,19.9 74.1,63.2 44.1,100.2"
   id="path383"
   inkscape:connector-curvature="0"
   style="fill:none;stroke:#333333;stroke-width:2;stroke-linecap:round;stroke-linejoin:round;stroke-miterlimit:10" />
			<line
   class="st17"
   x1="229.2"
   y1="354.5"
   x2="233.7"
   y2="351.60001"
   id="line385"
   style="fill:none;stroke:#333333;stroke-width:2;stroke-linecap:round;stroke-linejoin:round;stroke-miterlimit:10" />
			<line
   class="st17"
   x1="232.39999"
   y1="359.79999"
   x2="237.7"
   y2="356.89999"
   id="line387"
   style="fill:none;stroke:#333333;stroke-width:2;stroke-linecap:round;stroke-linejoin:round;stroke-miterlimit:10" />
			<line
   class="st17"
   x1="263.29999"
   y1="397.70001"
   x2="264.79999"
   y2="390.70001"
   id="line389"
   style="fill:none;stroke:#333333;stroke-width:2;stroke-linecap:round;stroke-linejoin:round;stroke-miterlimit:10" />
			<line
   class="st17"
   x1="260.70001"
   y1="386.70001"
   x2="254.2"
   y2="388"
   id="line391"
   style="fill:none;stroke:#333333;stroke-width:2;stroke-linecap:round;stroke-linejoin:round;stroke-miterlimit:10" />
			<line
   class="st17"
   x1="339.29999"
   y1="477.20001"
   x2="345.5"
   y2="477.20001"
   id="line393"
   style="fill:none;stroke:#333333;stroke-width:2;stroke-linecap:round;stroke-linejoin:round;stroke-miterlimit:10" />
			<line
   class="st17"
   x1="337.89999"
   y1="473"
   x2="345.5"
   y2="473"
   id="line395"
   style="fill:none;stroke:#333333;stroke-width:2;stroke-linecap:round;stroke-linejoin:round;stroke-miterlimit:10" />
			<line
   class="st17"
   x1="336.5"
   y1="467.60001"
   x2="344.29999"
   y2="465"
   id="line397"
   style="fill:none;stroke:#333333;stroke-width:2;stroke-linecap:round;stroke-linejoin:round;stroke-miterlimit:10" />
			<path
   class="st17"
   d="m 212.5,467.6 c 0,15.4 11.5,36.9 18.5,41.9"
   id="path399"
   inkscape:connector-curvature="0"
   style="fill:none;stroke:#333333;stroke-width:2;stroke-linecap:round;stroke-linejoin:round;stroke-miterlimit:10" />
			<path
   class="st17"
   d="m 227,481 c 0,9.2 6,27.1 10.3,28.5"
   id="path401"
   inkscape:connector-curvature="0"
   style="fill:none;stroke:#333333;stroke-width:2;stroke-linecap:round;stroke-linejoin:round;stroke-miterlimit:10" />
			<path
   class="st17"
   d="m 327.8,496.3 c -1.7,6 -5,11.1 -7.7,13.2"
   id="path403"
   inkscape:connector-curvature="0"
   style="fill:none;stroke:#333333;stroke-width:2;stroke-linecap:round;stroke-linejoin:round;stroke-miterlimit:10" />
			<path
   class="st17"
   d="m 200.7,372.8 c 3.1,9.3 9.3,12.9 14.8,15.2"
   id="path405"
   inkscape:connector-curvature="0"
   style="fill:none;stroke:#333333;stroke-width:2;stroke-linecap:round;stroke-linejoin:round;stroke-miterlimit:10" />
			<path
   class="st17"
   d="m 201,378.8 c 0.6,5.8 2.9,10.3 7.1,11.8"
   id="path407"
   inkscape:connector-curvature="0"
   style="fill:none;stroke:#333333;stroke-width:2;stroke-linecap:round;stroke-linejoin:round;stroke-miterlimit:10" />
			<line
   class="st15"
   x1="220.8"
   y1="509.5"
   x2="200.8"
   y2="509.5"
   id="line409"
   style="fill:none;stroke:#333333;stroke-width:4;stroke-linecap:round;stroke-linejoin:round;stroke-miterlimit:10" />
			<line
   class="st15"
   x1="193.8"
   y1="509.5"
   x2="189.8"
   y2="509.5"
   id="line411"
   style="fill:none;stroke:#333333;stroke-width:4;stroke-linecap:round;stroke-linejoin:round;stroke-miterlimit:10" />
		</g>
		<line
   class="st17"
   x1="213"
   y1="461.29999"
   x2="213.3"
   y2="457"
   id="line415"
   style="fill:none;stroke:#333333;stroke-width:2;stroke-linecap:round;stroke-linejoin:round;stroke-miterlimit:10" />
	</g>
</g>
</svg>